<svg aria-hidden="true" style="position: absolute; width: 0; height: 0; overflow: hidden;" version="1.1" xmlns="http://www.w3.org/2000/svg" xmlns:xlink="http://www.w3.org/1999/xlink">
<defs>
<symbol id="icon-heart" viewBox="0 0 32 32">
<path stroke-linejoin="round" stroke-linecap="round" stroke-miterlimit="4" stroke-width="2.6667" d="M27.787 6.147c-0.681-0.681-1.49-1.222-2.379-1.591s-1.844-0.559-2.807-0.559-1.917 0.19-2.807 0.559c-0.89 0.369-1.699 0.909-2.38 1.591l-1.413 1.413-1.413-1.413c-1.376-1.376-3.241-2.148-5.187-2.148s-3.811 0.773-5.187 2.148c-1.376 1.376-2.148 3.241-2.148 5.187s0.773 3.811 2.148 5.187l11.787 11.787 11.787-11.787c0.681-0.681 1.222-1.49 1.591-2.38s0.559-1.844 0.559-2.807-0.19-1.917-0.559-2.807c-0.369-0.89-0.909-1.699-1.591-2.38v0z"></path>
</symbol>
<symbol id="icon-instagram" viewBox="0 0 32 32">
<path d="M28.718 10.756c-0.016-1.074-0.215-2.14-0.596-3.145-0.667-1.716-2.024-3.073-3.743-3.737-0.994-0.373-2.044-0.573-3.108-0.596-1.368-0.061-1.801-0.078-5.273-0.078s-3.916 0-5.274 0.078c-1.062 0.023-2.113 0.223-3.106 0.596-1.719 0.664-3.078 2.021-3.743 3.737-0.374 0.992-0.576 2.041-0.596 3.101-0.061 1.367-0.080 1.8-0.080 5.265s0 3.909 0.080 5.265c0.021 1.062 0.222 2.109 0.596 3.104 0.667 1.714 2.024 3.071 3.744 3.735 0.989 0.386 2.040 0.605 3.106 0.639 1.369 0.061 1.803 0.080 5.274 0.080s3.916 0 5.274-0.080c1.062-0.021 2.112-0.221 3.108-0.595 1.719-0.666 3.076-2.022 3.743-3.737 0.374-0.994 0.574-2.041 0.596-3.104 0.061-1.365 0.080-1.798 0.080-5.265-0.003-3.466-0.003-3.906-0.082-5.264zM15.99 22.531c-3.631 0-6.572-2.936-6.572-6.561s2.941-6.561 6.572-6.561c3.628 0 6.572 2.936 6.572 6.561s-2.944 6.561-6.572 6.561zM22.824 10.696c-0.849 0-1.532-0.684-1.532-1.53s0.684-1.53 1.532-1.53c0.846 0 1.531 0.684 1.531 1.53s-0.685 1.53-1.531 1.53z"></path>
<path d="M15.992 19.976c2.211 0 4.004-1.793 4.004-4.004s-1.793-4.004-4.004-4.004c-2.211 0-4.004 1.793-4.004 4.004s1.793 4.004 4.004 4.004z"></path>
</symbol>
<symbol id="icon-left" viewBox="0 0 32 32">
<path stroke-linejoin="round" stroke-linecap="round" stroke-miterlimit="4" stroke-width="1.3333" d="M20 24l-8-8 8-8"></path>
</symbol>
<symbol id="icon-right" viewBox="0 0 32 32">
<path stroke-linejoin="round" stroke-linecap="round" stroke-miterlimit="4" stroke-width="1.3333" d="M12 24l8-8-8-8"></path>
</symbol>
<symbol id="icon-close" viewBox="0 0 32 32">
<path stroke-linejoin="round" stroke-linecap="round" stroke-miterlimit="4" stroke-width="1.7333" d="M24 8l-16 16"></path>
<path stroke-linejoin="round" stroke-linecap="round" stroke-miterlimit="4" stroke-width="1.7333" d="M8 8l16 16"></path>
</symbol>
<symbol id="icon-burger" viewBox="0 0 32 32">
<path d="M3.56 6.743c-0.307 0.116-0.556 0.328-0.715 0.599l-0.004 0.006c-0.201 0.341-0.209 0.873-0.021 1.256 0.157 0.32 0.521 0.597 0.887 0.677 0.187 0.041 1.929 0.053 5.787 0.041 5.36-0.016 5.527-0.019 5.731-0.12 1.068-0.531 0.995-2.063-0.117-2.46-0.296-0.105-11.251-0.105-11.547 0zM3.556 14.753c-0.488 0.149-0.889 0.712-0.889 1.247 0 0.323 0.159 0.695 0.399 0.935 0.435 0.435-0.751 0.399 12.935 0.399 13.689 0 12.5 0.037 12.936-0.4 0.716-0.716 0.377-1.964-0.6-2.211-0.153-0.039-3.989-0.055-12.373-0.052-10.583 0.003-12.183 0.013-12.407 0.083zM3.697 22.717c-0.159 0.051-0.296 0.113-0.424 0.189l0.009-0.005c-0.925 0.543-0.756 1.988 0.277 2.356 0.296 0.105 16.584 0.105 16.88 0 0.52-0.194 0.883-0.686 0.883-1.263 0-0.309-0.104-0.593-0.279-0.82l0.002 0.003c-0.117-0.129-0.253-0.237-0.405-0.321l-0.008-0.004-0.287-0.159-8.24-0.008c-4.532-0.005-8.316 0.009-8.409 0.032z"></path>
</symbol>
<symbol id="icon-facebook" viewBox="0 0 32 32">
<path d="M17.546 4.619c-1.56 0.201-2.526 0.674-3.113 1.528-0.447 0.648-0.617 1.502-0.658 3.306l-0.029 1.266h-2.173v3.040h2.186v13.28h4.106v-13.174h2.614v-3.040h-2.619l0.016-1.063 0.017-1.063 0.157-0.165c0.224-0.233 0.418-0.269 1.483-0.269l0.946-0.001v-3.626h-0.418c-0.23 0-0.848-0.010-1.374-0.022-0.525-0.013-1.039-0.011-1.142 0.001z"></path>
</symbol>
<symbol id="icon-youtube" viewBox="0 0 32 32">
<path d="M9.546 5.923c-3.041 0.122-4.53 0.395-5.701 1.048-0.411 0.229-0.926 0.734-1.175 1.157-0.246 0.415-0.509 1.221-0.61 1.872-0.15 0.959-0.207 3.115-0.178 6.722 0.027 3.475 0.061 4.139 0.255 5.104 0.417 2.072 1.399 3.017 3.638 3.502 1.521 0.33 3.323 0.4 10.251 0.401 5.449 0 6.906-0.035 8.64-0.213 2.016-0.206 3.19-0.622 3.976-1.408 0.607-0.607 0.963-1.395 1.143-2.527 0.143-0.894 0.2-3.113 0.174-6.648-0.026-3.602-0.062-4.254-0.288-5.28-0.211-0.961-0.473-1.544-0.909-2.027-0.895-0.995-2.446-1.493-5.168-1.657-1.195-0.072-12.477-0.109-14.048-0.046zM16.814 13.253c2.339 1.402 4.253 2.567 4.253 2.587s-1.913 1.185-4.253 2.587c-10.082 5.747-11.51 6.616-12.937 7.488l8.563-4.86-0.12 0.078v-10.585l0.12 0.078c0.066 0.042 2.034 1.224 4.374 2.627z"></path>
</symbol>
</defs>
</svg>
